<svg
  viewBox="0 0 1160.9127 1145.6638"
  fill="none"
  version="1.1"
  id="svg11"
  sodipodi:docname="accent-shape-logo.svg"
  inkscape:version="1.3.2 (091e20ef0f, 2023-11-25, custom)"
  xml:space="preserve"
  xmlns:inkscape="http://www.inkscape.org/namespaces/inkscape"
  xmlns:sodipodi="http://sodipodi.sourceforge.net/DTD/sodipodi-0.dtd"
  xmlns="http://www.w3.org/2000/svg"
  xmlns:svg="http://www.w3.org/2000/svg"><sodipodi:namedview
     id="namedview11"
     pagecolor="#ffffff"
     bordercolor="#666666"
     borderopacity="1.0"
     inkscape:showpageshadow="2"
     inkscape:pageopacity="0.0"
     inkscape:pagecheckerboard="0"
     inkscape:deskcolor="#d1d1d1"
     inkscape:zoom="0.84287128"
     inkscape:cx="613.37954"
     inkscape:cy="546.93998"
     inkscape:window-width="3840"
     inkscape:window-height="2078"
     inkscape:window-x="1920"
     inkscape:window-y="45"
     inkscape:window-maximized="1"
     inkscape:current-layer="svg11" /><defs
     id="defs11"><linearGradient
       id="paint0_linear_127_67"
       x1="1147.5"
       y1="480.5"
       x2="3019.5"
       y2="1332"
       gradientUnits="userSpaceOnUse"
       gradientTransform="translate(-4800.0828,-1490.878)"><stop
         offset="0.224479"
         stop-color="#FA18FF"
         id="stop6" /><stop
         offset="0.828646"
         stop-color="#5845EF"
         id="stop7" /></linearGradient><linearGradient
       id="paint1_linear_127_67"
       x1="2852.5"
       y1="3133.6001"
       x2="980.5"
       y2="2282.1001"
       gradientUnits="userSpaceOnUse"
       gradientTransform="translate(-4800.0828,-1490.878)"><stop
         offset="0.224479"
         stop-color="#FA18FF"
         id="stop8" /><stop
         offset="0.828646"
         stop-color="#5845EF"
         id="stop9" /></linearGradient></defs><path
     id="path2"
     d="m 99.72658,-455.47752 c -50.9558,0.62524 -93.8652049,53.69146 -93.8652049,106.09766 v 259.998045 c 0,64.99993 10e-5,97.5000604 130.0000049,162.5 l 584.8984,292.449225 -519.8984,259.9492 c -259.999805,129.99987 -259.999805,390.00009 0,519.99999 l 1104.99992,552.5 c 64.9999,32.5 130,-33.0001 130,-97.5 v -260 c 0,-64.9999 -2e-4,-97.5001 -130,-162.5 l -584.99992,-292.49998 519.99992,-260 c 259.9997,-129.99987 259.9997,-390.00013 0,-520 L 135.86138,-446.87986 c -12.1875,-6.09374 -24.3758,-8.74194 -36.1348,-8.59766 z"
     sodipodi:nodetypes="sssscsscssscsccs"
     /></svg>