<svg
   viewBox="0 0 1282.2842 1154.8138"
   fill="none"
   version="1.1"
   id="svg11"
   sodipodi:docname="hero-background-logo.svg"
   inkscape:version="1.3.2 (091e20ef0f, 2023-11-25, custom)"
   xml:space="preserve"
   width="1282.2842"
   height="1154.8138"
   xmlns:inkscape="http://www.inkscape.org/namespaces/inkscape"
   xmlns:sodipodi="http://sodipodi.sourceforge.net/DTD/sodipodi-0.dtd"
   xmlns="http://www.w3.org/2000/svg"
   xmlns:svg="http://www.w3.org/2000/svg"><sodipodi:namedview
     id="namedview11"
     pagecolor="#ffffff"
     bordercolor="#666666"
     borderopacity="1.0"
     inkscape:showpageshadow="2"
     inkscape:pageopacity="0.0"
     inkscape:pagecheckerboard="0"
     inkscape:deskcolor="#d1d1d1"
     inkscape:zoom="0.298"
     inkscape:cx="1385.906"
     inkscape:cy="741.61074"
     inkscape:window-width="1920"
     inkscape:window-height="1014"
     inkscape:window-x="0"
     inkscape:window-y="0"
     inkscape:window-maximized="1"
     inkscape:current-layer="svg11" /><defs
     id="defs11"><linearGradient
       id="paint0_linear_127_67"
       x1="1147.5"
       y1="480.5"
       x2="3019.5"
       y2="1332"
       gradientUnits="userSpaceOnUse"
       gradientTransform="translate(-4800.0828,-1490.878)"><stop
         offset="0.224479"
         stop-color="#FA18FF"
         id="stop6" /><stop
         offset="0.828646"
         stop-color="#5845EF"
         id="stop7" /></linearGradient><linearGradient
       id="paint1_linear_127_67"
       x1="2852.5"
       y1="3133.6001"
       x2="980.5"
       y2="2282.1001"
       gradientUnits="userSpaceOnUse"
       gradientTransform="translate(-4800.0828,-1490.878)"><stop
         offset="0.224479"
         stop-color="#FA18FF"
         id="stop8" /><stop
         offset="0.828646"
         stop-color="#5845EF"
         id="stop9" /></linearGradient></defs><path
     id="path1"
     d="m 143.03288,-451.4995 c -50.955805,0.62525 -93.865205,53.69146 -93.865205,106.09766 v 130 29.5 100.498049 c 0,64.99993 10e-5,97.50006 130.000005,162.5 l 65,32.500001 195,97.5 324.8984,162.44922 -519.8984,259.94921 c -259.999801,129.99987 -259.999801,390.00016 0,520.00006 l 520,260 585.00002,292.5 c 64.9999,32.5 130,-33.0001 130,-97.5 v -130 -29.5 -100.5 c 0,-64.9999 -2e-4,-97.5001 -130,-162.5 l -65,-32.5 -195,-97.5 -325.00002,-162.50006 520.00002,-260 c 259.9997,-129.99987 259.9997,-390.00013 0,-520 l -520.00002,-260 C 894.19008,-85.494131 959.1883,12.028589 959.1657,109.54543 959.1427,12.062459 894.14498,-85.415151 764.16768,-150.40379 l -585,-292.49805 c -12.1875,-6.09374 -24.3758,-8.74194 -36.1348,-8.59766 z"
      /><rect
     style="opacity:0.530924;fill:#fb0000;fill-opacity:1;stroke-width:24.0537"
     id="rect1"
     width="1282.2842"
     height="1154.8138"
     x="2404.3362"
     y="348.28543" /></svg>